<?xml version="1.0" encoding="UTF-8"?>
<!-- Created with Inkscape (http://www.inkscape.org/) -->
<svg width="131.75mm" height="150.99mm" version="1.1" viewBox="0 0 131.75 150.99" xmlns="http://www.w3.org/2000/svg" xmlns:cc="http://creativecommons.org/ns#" xmlns:dc="http://purl.org/dc/elements/1.1/" xmlns:rdf="http://www.w3.org/1999/02/22-rdf-syntax-ns#">
 <title>MG tree logo</title>
 <g transform="translate(-39.124 -61.41)">
  <ellipse cx="105" cy="136.9" rx="65.876" ry="75.493" style="fill-rule:evenodd;fill:#b0cfff;stroke-width:.26128"/>
  <text transform="scale(.99132 1.0088)" x="63.27644" y="186.76907" style="fill:#000000;font-family:sans-serif;font-size:53.138px;line-height:0.95;stroke-width:1.3285" xml:space="preserve"><tspan x="63.27644" y="186.76907" style="fill:#000000;font-family:'Leelawadee UI';stroke-width:1.3285">MG</tspan></text>
  <path d="m103.14 67.688c-5.0111 4.4e-5 -9.0733 3.9595-9.0732 8.8435 0.0013 0.4856 0.04362 0.97028 0.12655 1.4491-0.86001-0.21973-1.7431-0.33092-2.6296-0.3311-5.9903-6.5e-5 -10.846 4.9604-10.846 11.08 0.0031 3.8062 1.9186 7.3443 5.073 9.3703-0.99945 1.735-1.525 3.6875-1.5271 5.6731-3e-6 6.4559 5.4163 11.689 12.098 11.689 6.8567-1.3112 9.6908 1.6361 15.852 1.6266 4.6078-2e-5 8.3432-3.3222 8.3432-7.4202 4e-5 -0.0678-9.6e-4 -0.13554-3e-3 -0.20328h3e-3c5.9903 8e-5 10.846-4.9604 10.846-11.08-3.8e-4 -5.181-3.5157-9.67-8.4638-10.808 1.4286-1.739 2.2042-3.8711 2.2062-6.0652 1e-4 -5.5015-4.7624-9.9614-10.637-9.9615-1.1947 0.0025-2.3804 0.19336-3.5074 0.56469-1.6198-2.7391-4.6166-4.427-7.8603-4.4273z" style="fill:#447821;stroke-width:.17868"/>
  <path d="m98.385 103.73c4.1717 7.137 7.8566 6.2247 12.14 6.3374 0.58172 9.4436-0.29658 15.963 1.3582 25.563 1.1145 5.9842 2.8686 7.0148 2.8686 7.0148h-21.901s2.7477-1.0165 3.2208-7.0148c0.4731-5.9983 2.3133-31.9 2.3133-31.9z" style="fill:#927a1d;stroke-width:.13648"/>
 </g>
 <metadata>
  <rdf:RDF>
   <cc:License rdf:about="http://creativecommons.org/licenses/by/4.0/">
    <cc:permits rdf:resource="http://creativecommons.org/ns#Reproduction"/>
    <cc:permits rdf:resource="http://creativecommons.org/ns#Distribution"/>
    <cc:requires rdf:resource="http://creativecommons.org/ns#Notice"/>
    <cc:requires rdf:resource="http://creativecommons.org/ns#Attribution"/>
    <cc:permits rdf:resource="http://creativecommons.org/ns#DerivativeWorks"/>
   </cc:License>
   <cc:Work rdf:about="">
    <cc:license rdf:resource="http://creativecommons.org/licenses/by/4.0/"/>
    <dc:creator>
     <cc:Agent>
      <dc:title>Michael Grunow</dc:title>
     </cc:Agent>
    </dc:creator>
    <dc:description>Tree with the initials MG</dc:description>
    <dc:title>MG tree logo</dc:title>
   </cc:Work>
  </rdf:RDF>
 </metadata>
</svg>
